<svg width="469" height="226" viewBox="0 0 469 226" fill="none" xmlns="http://www.w3.org/2000/svg">
<path d="M60.8983 0.0118586C58.6955 -0.156307 56.7736 1.49303 56.6054 3.69577C56.4372 5.8985 58.0866 7.82048 60.2893 7.98864L60.5938 4.00025L60.8983 0.0118586ZM442.094 203.5L402.754 179.299L401.465 225.469L442.094 203.5ZM60.5938 4.00025L60.2893 7.98864C215.502 19.8379 317.813 31.2573 380.507 42.2224C411.901 47.7131 433.119 53.0507 446.028 58.1763C452.526 60.7565 456.555 63.1455 458.737 65.2087C460.81 67.169 460.682 68.2379 460.505 68.8193C460.166 69.936 458.785 71.7798 455.123 74.1288C451.607 76.3837 446.603 78.7162 440.182 81.0923C427.364 85.836 409.546 90.5205 388.26 95.1275C345.726 104.334 289.96 113.103 234.034 121.43C178.176 129.747 122.148 137.624 79.3059 145.028C57.8913 148.728 39.6515 152.33 26.3154 155.835C19.6607 157.584 14.0957 159.342 9.92416 161.125C7.84067 162.016 5.99303 162.959 4.49494 163.976C3.05941 164.951 1.59558 166.225 0.738837 167.908C-0.25323 169.855 -0.271402 172.063 0.837407 174.058C1.78955 175.772 3.39065 177.002 4.98571 177.925C8.21896 179.795 13.2521 181.418 19.9069 182.921C33.3669 185.963 55.008 188.836 86.328 191.571C149.042 197.048 251.258 202.025 406.095 206.497L406.21 202.498L406.326 198.5C251.507 194.028 149.489 189.057 87.024 183.602C55.7541 180.871 34.5689 178.032 21.67 175.118C15.1453 173.644 11.1158 172.229 8.9913 171C7.90747 170.373 7.75593 170.039 7.8301 170.172C8.06097 170.588 8.03955 171.2 7.86745 171.538C7.83071 171.61 8.01004 171.26 8.98939 170.595C9.90619 169.972 11.2452 169.261 13.0685 168.481C16.7106 166.924 21.84 165.283 28.3488 163.572C41.3392 160.158 59.3015 156.603 80.6682 152.911C123.388 145.528 179.241 137.677 235.212 129.343C291.116 121.019 347.128 112.215 389.953 102.946C411.347 98.3159 429.603 93.5373 442.959 88.5951C449.625 86.1282 455.233 83.562 459.442 80.8628C463.504 78.2576 466.961 75.0919 468.16 71.1441C469.521 66.6609 467.632 62.61 464.233 59.3959C460.943 56.2846 455.788 53.4445 448.98 50.741C435.275 45.2992 413.387 39.8517 381.886 34.3421C318.789 23.3066 216.155 11.8645 60.8983 0.0118586L60.5938 4.00025Z" fill="#FF680C"/>
</svg>
